<svg xmlns="http://www.w3.org/2000/svg" viewBox="0 0 640 240" width="640" height="240" font-family="sans-serif">
<defs>
<linearGradient id="temp" x1="20" y1="0" x2="620" y2="0" gradientUnits="userSpaceOnUse"><stop offset="0.000" stop-color="#40c29e"/><stop offset="0.067" stop-color="#3dc3c7"/><stop offset="0.133" stop-color="#45b5d7"/><stop offset="0.200" stop-color="#4da7e7"/><stop offset="0.267" stop-color="#4593e7"/><stop offset="0.333" stop-color="#387de0"/><stop offset="0.400" stop-color="#306ad9"/><stop offset="0.467" stop-color="#345bd0"/><stop offset="0.533" stop-color="#374cc7"/><stop offset="0.600" stop-color="#3b3fbf"/><stop offset="0.667" stop-color="#493fbc"/><stop offset="0.733" stop-color="#583fb9"/><stop offset="0.800" stop-color="#663fb6"/><stop offset="0.867" stop-color="#7443b6"/><stop offset="0.933" stop-color="#8250be"/><stop offset="1.000" stop-color="#905cc5"/></linearGradient>
<marker id="head" viewBox="0 0 10 10" refX="7" refY="5" markerWidth="5" markerHeight="5" orient="auto-start-reverse"><path d="M0,0 L10,5 L0,10 Z" fill="#8a9199"/></marker>
<style>@keyframes airflow-out{to{stroke-dashoffset:-160}}@keyframes airflow-in{to{stroke-dashoffset:160}}.airflow path{fill:none;stroke:#fff;stroke-width:2.2;stroke-linecap:round}@media (prefers-reduced-motion:reduce){.airflow{display:none}}</style><linearGradient id="airflow-fade" x1="88" y1="0" x2="552" y2="0" gradientUnits="userSpaceOnUse"><stop offset="0" stop-color="#000"/><stop offset="0.086" stop-color="#fff"/><stop offset="0.914" stop-color="#fff"/><stop offset="1" stop-color="#000"/></linearGradient><mask id="airflow-mask" maskUnits="userSpaceOnUse" x="0" y="0" width="640" height="240"><rect width="640" height="240" fill="url(#airflow-fade)"/></mask>
</defs>
<line x1="460" y1="34" x2="180" y2="34" stroke="#8a9199" stroke-width="4" stroke-linecap="round" marker-end="url(#head)"/>
<text x="320" y="22" text-anchor="middle" font-size="16" font-weight="bold" fill="#8a9199">Intake</text>
<path d="M 20,100 L 70,100 C 95,100 100,60 130,60 L 510,60 C 540,60 545,100 570,100 L 620,100 L 620,140 L 570,140 C 545,140 540,180 510,180 L 130,180 C 100,180 95,140 70,140 L 20,140 Z" fill="url(#temp)" stroke="#6b7280" stroke-width="3" stroke-linejoin="round"/>
<g class="airflow" mask="url(#airflow-mask)" opacity="0.7"><path d="M 20,102.8 L 70,102.8 C 95,102.8 100,68.4 130,68.4 L 510,68.4 C 540,68.4 545,102.8 570,102.8 L 620,102.8" stroke-dasharray="10 150" style="animation:airflow-in 1.359s linear -0.653s infinite"/><path d="M 20,105.0 L 70,105.0 C 95,105.0 100,75.0 130,75.0 L 510,75.0 C 540,75.0 545,105.0 570,105.0 L 620,105.0" stroke-dasharray="9 151" style="animation:airflow-in 1.500s linear -1.380s infinite"/><path d="M 20,108.0 L 70,108.0 C 95,108.0 100,84.0 130,84.0 L 510,84.0 C 540,84.0 545,108.0 570,108.0 L 620,108.0" stroke-dasharray="9 151" style="animation:airflow-in 1.581s linear -0.854s infinite"/><path d="M 20,109.6 L 70,109.6 C 95,109.6 100,88.8 130,88.8 L 510,88.8 C 540,88.8 545,109.6 570,109.6 L 620,109.6" stroke-dasharray="11 149" style="animation:airflow-in 1.322s linear -0.344s infinite"/><path d="M 20,112.6 L 70,112.6 C 95,112.6 100,97.8 130,97.8 L 510,97.8 C 540,97.8 545,112.6 570,112.6 L 620,112.6" stroke-dasharray="9 151" style="animation:airflow-in 1.322s linear -1.071s infinite"/><path d="M 20,114.8 L 70,114.8 C 95,114.8 100,104.4 130,104.4 L 510,104.4 C 540,104.4 545,114.8 570,114.8 L 620,114.8" stroke-dasharray="12 148" style="animation:airflow-in 1.616s linear -0.469s infinite"/><path d="M 20,117.0 L 70,117.0 C 95,117.0 100,111.0 130,111.0 L 510,111.0 C 540,111.0 545,117.0 570,117.0 L 620,117.0" stroke-dasharray="14 146" style="animation:airflow-in 1.653s linear -1.008s infinite"/><path d="M 20,119.0 L 70,119.0 C 95,119.0 100,117.0 130,117.0 L 510,117.0 C 540,117.0 545,119.0 570,119.0 L 620,119.0" stroke-dasharray="17 143" style="animation:airflow-in 1.581s linear -0.395s infinite"/><path d="M 20,120.8 L 70,120.8 C 95,120.8 100,122.4 130,122.4 L 510,122.4 C 540,122.4 545,120.8 570,120.8 L 620,120.8" stroke-dasharray="17 143" style="animation:airflow-in 1.322s linear -0.013s infinite"/><path d="M 20,123.2 L 70,123.2 C 95,123.2 100,129.6 130,129.6 L 510,129.6 C 540,129.6 545,123.2 570,123.2 L 620,123.2" stroke-dasharray="13 147" style="animation:airflow-in 1.322s linear -0.674s infinite"/><path d="M 20,125.4 L 70,125.4 C 95,125.4 100,136.2 130,136.2 L 510,136.2 C 540,136.2 545,125.4 570,125.4 L 620,125.4" stroke-dasharray="13 147" style="animation:airflow-in 1.484s linear -0.237s infinite"/><path d="M 20,127.6 L 70,127.6 C 95,127.6 100,142.8 130,142.8 L 510,142.8 C 540,142.8 545,127.6 570,127.6 L 620,127.6" stroke-dasharray="9 151" style="animation:airflow-in 1.672s linear -0.769s infinite"/><path d="M 20,130.6 L 70,130.6 C 95,130.6 100,151.8 130,151.8 L 510,151.8 C 540,151.8 545,130.6 570,130.6 L 620,130.6" stroke-dasharray="17 143" style="animation:airflow-in 1.440s linear -0.677s infinite"/><path d="M 20,132.2 L 70,132.2 C 95,132.2 100,156.6 130,156.6 L 510,156.6 C 540,156.6 545,132.2 570,132.2 L 620,132.2" stroke-dasharray="12 148" style="animation:airflow-in 1.672s linear -1.521s infinite"/><path d="M 20,134.8 L 70,134.8 C 95,134.8 100,164.4 130,164.4 L 510,164.4 C 540,164.4 545,134.8 570,134.8 L 620,134.8" stroke-dasharray="16 144" style="animation:airflow-in 1.564s linear -0.563s infinite"/><path d="M 20,137.0 L 70,137.0 C 95,137.0 100,171.0 130,171.0 L 510,171.0 C 540,171.0 545,137.0 570,137.0 L 620,137.0" stroke-dasharray="14 146" style="animation:airflow-in 1.399s linear -0.280s infinite"/></g>
<text x="20" y="92" font-size="15" font-weight="bold" fill="#8a9199">Inside</text>
<text x="620" y="92" text-anchor="end" font-size="15" font-weight="bold" fill="#8a9199">Outside</text>
<rect x="25" y="108" width="78" height="24" rx="6" fill="#000" fill-opacity="0.5"/><text x="64" y="125" text-anchor="middle" font-size="14" font-weight="bold" fill="#fff">7.0 °C</text>
<rect x="537" y="108" width="78" height="24" rx="6" fill="#000" fill-opacity="0.5"/><text x="576" y="125" text-anchor="middle" font-size="14" font-weight="bold" fill="#fff">-25.0 °C</text>

</svg>